Coordinates
version=1
nRows=17
nColumns=40
inDegrees=yes

Units are S.I. units (second, meters, Newtons, ...)
Angles are in degrees.

endheader
time	pelvis_tilt	pelvis_list	pelvis_rotation	pelvis_tx	pelvis_ty	pelvis_tz	hip_flexion_r	hip_adduction_r	hip_rotation_r	knee_angle_r	knee_angle_r_beta	ankle_angle_r	subtalar_angle_r	mtp_angle_r	hip_flexion_l	hip_adduction_l	hip_rotation_l	knee_angle_l	knee_angle_l_beta	ankle_angle_l	subtalar_angle_l	mtp_angle_l	lumbar_extension	lumbar_bending	lumbar_rotation	arm_flex_r	arm_add_r	arm_rot_r	elbow_flex_r	pro_sup_r	wrist_flex_r	wrist_dev_r	arm_flex_l	arm_add_l	arm_rot_l	elbow_flex_l	pro_sup_l	wrist_flex_l	wrist_dev_l
      2.43000005	    -15.54333375	     -5.04557498	     -2.94781401	     -1.17316300	      0.96086343	      0.29176963	     37.87564578	      4.40705617	     -9.58562135	     31.00634867	     31.00634867	      6.60063626	      0.00000000	      0.00000000	     15.02461049	     -6.97639498	     -0.87417056	    107.32790940	    107.32790940	    -13.44599847	      0.00000000	      0.00000000	    -22.32296710	      9.85595299	     -0.35525998	     -1.47718749	    -20.42950341	    -11.33195488	     91.31225977	     36.48514229	      0.00000000	      0.00000000	     -2.38661717	    -21.63052661	      3.04458132	     81.06538160	     37.20455796	      0.00000000	      0.00000000
      2.43500005	    -15.55040319	     -5.29096568	     -3.71254770	     -1.14228061	      0.95949235	      0.29336063	     36.31173153	      5.12929022	     -9.19959449	     32.12830653	     32.12830653	      9.30373874	      0.00000000	      0.00000000	     17.66953242	     -7.67399161	     -0.61546673	    110.62812577	    110.62812577	    -11.83758386	      0.00000000	      0.00000000	    -22.18194215	      9.76592490	     -0.37804150	      3.29117269	    -19.66901901	     -8.97505519	     92.09580958	     36.57445003	      0.00000000	      0.00000000	     -5.27821933	    -20.52748802	      1.13620892	     77.44510673	     36.91242203	      0.00000000	      0.00000000
      2.44000005	    -15.47778156	     -5.49591760	     -4.46096527	     -1.11142475	      0.95847919	      0.29489211	     34.58759739	      5.75699151	     -8.73129957	     33.12194283	     33.12194283	     11.72220243	      0.00000000	      0.00000000	     20.31470135	     -8.32748889	     -0.25870763	    113.57528997	    113.57528997	    -10.27458226	      0.00000000	      0.00000000	    -22.14992945	      9.60840876	     -0.20055065	      7.71006177	    -18.71840815	     -7.01157743	     93.14342690	     36.68687467	      0.00000000	      0.00000000	     -7.89901963	    -19.49938075	     -0.51326451	     74.05380387	     36.64428037	      0.00000000	      0.00000000
      2.44500005	    -15.32377822	     -5.62887147	     -5.21293244	     -1.08054419	      0.95783493	      0.29639230	     32.69480692	      6.26576536	     -8.13174306	     33.95680838	     33.95680838	     13.78284929	      0.00000000	      0.00000000	     22.94118497	     -8.90403183	      0.13305870	    116.13844360	    116.13844360	     -8.76005238	      0.00000000	      0.00000000	    -22.21165294	      9.33129395	      0.17815400	     11.76478489	    -17.68033397	     -5.42688680	     94.46427882	     36.83366243	      0.00000000	      0.00000000	    -10.33163609	    -18.58386693	     -1.92619965	     70.97673041	     36.40871062	      0.00000000	      0.00000000
      2.45000005	    -15.09730174	     -5.66198391	     -5.98972937	     -1.04959312	      0.95752918	      0.29789848	     30.64173850	      6.63189181	     -7.36440709	     34.61509341	     34.61509341	     15.44277336	      0.00000000	      0.00000000	     25.53800854	     -9.38416608	      0.49259740	    118.29722799	    118.29722799	     -7.29368090	      0.00000000	      0.00000000	    -22.33522829	      8.89011491	      0.74383529	     15.47053533	    -16.64166468	     -4.17748678	     96.04629010	     37.02362207	      0.00000000	      0.00000000	    -12.66241725	    -17.79796526	     -3.15240109	     68.28507188	     36.21506288	      0.00000000	      0.00000000
      2.45500005	    -14.81530694	     -5.57818694	     -6.80767022	     -1.01853661	      0.95749917	      0.29944798	     28.45196040	      6.83568929	     -6.41356708	     35.09189805	     35.09189805	     16.68125658	      0.00000000	      0.00000000	     28.10309741	     -9.76684619	      0.76299292	    120.04390941	    120.04390941	     -5.87513144	      0.00000000	      0.00000000	    -22.47981004	      8.25744262	      1.48084131	     18.91362352	    -15.62935821	     -3.55818494	     97.11863490	     46.97170965	      0.00000000	      0.00000000	    -14.94918094	    -17.14740062	     -4.26416814	     65.87554269	     38.01393620	      0.00000000	      0.00000000
      2.46000005	    -14.49969497	     -5.37469272	     -7.67231669	     -0.98735249	      0.95766209	      0.30106898	     26.16114951	      6.86507694	     -5.28696546	     35.39428370	     35.39428370	     17.49198747	      0.00000000	      0.00000000	     30.64345412	    -10.06767459	      0.90732115	    121.38351879	    121.38351879	     -4.50506973	      0.00000000	      0.00000000	    -22.59527349	      7.43245604	      2.34605323	     22.09599211	    -14.71339597	     -3.24495856	     98.47897076	     56.33808865	      0.00000000	      0.00000000	    -17.27049049	    -16.63727727	     -5.26546698	     63.97665647	     39.13388468	      0.00000000	      0.00000000
      2.46500005	    -14.17557391	     -5.06271210	     -8.57360517	     -0.95603046	      0.95792588	      0.30277009	     23.81355379	      6.71784286	     -4.01548807	     35.53710837	     35.53710837	     17.87532125	      0.00000000	      0.00000000	     33.17595747	    -10.31196838	      0.92208730	    122.33172615	    122.33172615	     -3.18957341	      0.00000000	      0.00000000	    -22.62963201	      6.44214261	      3.27876815	     25.00802246	    -13.95654927	     -2.65979752	    100.60363140	     56.55155817	      0.00000000	      0.00000000	    -19.68077553	    -16.25333089	     -6.19166413	     62.62041303	     39.03962458	      0.00000000	      0.00000000
      2.47000005	    -13.86860102	     -4.66246318	     -9.48780815	     -0.92456668	      0.95820270	      0.30454203	     21.45608094	      6.40224333	     -2.64603376	     35.53826670	     35.53826670	     17.83428077	      0.00000000	      0.00000000	     35.72337384	    -10.52543330	      0.83262923	    122.90893025	    122.90893025	     -1.94179808	      0.00000000	      0.00000000	    -22.55709521	      5.31847045	      4.27460450	     27.88925685	    -13.23854150	     -3.28129635	    101.78375841	     74.80073229	      0.00000000	      0.00000000	    -22.14424036	    -15.99855062	     -7.13961646	     61.35074412	     43.40336310	      0.00000000	      0.00000000
      2.47500005	    -13.60445661	     -4.19922580	    -10.38270344	     -0.89296103	      0.95841576	      0.30636660	     19.13444226	      5.93803529	     -1.23318530	     35.41542385	     35.41542385	     17.36980490	      0.00000000	      0.00000000	     38.31168207	    -10.72937622	      0.68153935	    123.13701056	    123.13701056	     -0.77843666	      0.00000000	      0.00000000	    -22.32666002	      4.12506068	      5.22422647	     30.55130195	    -12.70246669	     -3.11485050	    103.83394280	     78.73224866	      0.00000000	      0.00000000	    -24.74068582	    -15.83739216	     -8.08729179	     60.52951961	     46.90443018	      0.00000000	      0.00000000
      2.48000005	    -13.40575008	     -3.69968098	    -11.22182182	     -0.86121060	      0.95850835	      0.30822094	     16.88672436	      5.35408179	      0.16733228	     35.18388931	     35.18388931	     16.47981668	      0.00000000	      0.00000000	     40.96361767	    -10.93673412	      0.51891516	    123.03542878	    123.03542878	      0.28259129	      0.00000000	      0.00000000	    -21.92188900	      2.91109539	      6.10507279	     33.09304174	    -12.28824131	     -2.70277053	    106.02169871	     78.87946163	      0.00000000	      0.00000000	    -27.48421206	    -15.76624558	     -8.92758394	     60.31272794	     46.90944882	      0.00000000	      0.00000000
      2.48500005	    -13.28861228	     -3.18965744	    -11.96727854	     -0.82930264	      0.95844992	      0.31007872	     14.73718814	      4.68503763	      1.50440673	     34.85412362	     34.85412362	     15.16316831	      0.00000000	      0.00000000	     43.69201287	    -11.14953314	      0.39403534	    122.61833538	    122.61833538	      1.22851222	      0.00000000	      0.00000000	    -21.34235117	      1.72430677	      6.88543018	     35.58581678	    -11.93015835	     -2.45554708	    108.06669624	     81.16611073	      0.00000000	      0.00000000	    -30.26545076	    -15.74041215	    -10.09366808	     59.72497559	     55.67771245	      0.00000000	      0.00000000
      2.49000005	    -13.25876920	     -2.69319265	    -12.58050206	     -0.79720664	      0.95824136	      0.31190549	     12.69061696	      3.96667339	      2.73124644	     34.42920111	     34.42920111	     13.42051124	      0.00000000	      0.00000000	     46.49277538	    -11.35607101	      0.34917049	    121.89312674	    121.89312674	      2.05135253	      0.00000000	      0.00000000	    -20.58811758	      0.60724517	      7.54248051	     37.98182593	    -11.66035388	     -2.06062645	    110.13529798	     81.23933970	      0.00000000	      0.00000000	    -33.22972148	    -15.77557294	    -10.96286650	     60.04388360	     55.71915961	      0.00000000	      0.00000000
      2.49500005	    -13.30786917	     -2.23036343	    -13.02594634	     -0.76487169	      0.95791938	      0.31365917	     10.72903186	      3.23076178	      3.80860552	     33.90316741	     33.90316741	     11.25786800	      0.00000000	      0.00000000	     49.33834492	    -11.53063335	      0.41081610	    120.86025338	    120.86025338	      2.74971320	      0.00000000	      0.00000000	    -19.68909946	     -0.40648979	      8.04029832	     40.28322738	    -11.45645239	     -1.53327196	    112.21245707	     79.39102994	      0.00000000	      0.00000000	    -36.21444587	    -15.80744242	    -12.20298227	     60.05837598	     62.85130577	      0.00000000	      0.00000000
      2.50000005	    -13.41440317	     -1.81489286	    -13.27855498	     -0.73223710	      0.95755189	      0.31529884	      8.81683055	      2.50238003	      4.71187889	     33.26420139	     33.26420139	      8.69160850	      0.00000000	      0.00000000	     52.17786585	    -11.64019160	      0.58075163	    119.51481580	    119.51481580	      3.32058436	      0.00000000	      0.00000000	    -18.68207458	     -1.30654409	      8.39310169	     42.49162919	    -11.31230773	     -1.19046183	    114.16891295	     79.39842818	      0.00000000	      0.00000000	    -39.34081523	    -15.85583454	    -13.17292650	     60.76988986	     62.91123707	      0.00000000	      0.00000000
      2.50500005	    -13.54892508	     -1.45238131	    -13.33201528	     -0.69925139	      0.95722298	      0.31679849	      6.91293007	      1.79951611	      5.43819018	     32.50263709	     32.50263709	      5.75524129	      0.00000000	      0.00000000	     54.94374637	    -11.65715993	      0.83701527	    117.84995082	    117.84995082	      3.75890067	      0.00000000	      0.00000000	    -17.61024815	     -2.08696625	      8.56898772	     44.48841562	    -11.29383370	     -0.14718579	    116.55892091	     69.21010590	      0.00000000	      0.00000000	    -42.45304812	    -15.86204571	    -14.53283116	     61.21582571	     69.11640514	      0.00000000	      0.00000000
      2.51000005	    -13.67891518	     -1.14168338	    -13.20142621	     -0.66588379	      0.95702069	      0.31815329	      4.97966634	      1.13475362	      6.00811194	     31.61628968	     31.61628968	      2.50430823	      0.00000000	      0.00000000	     57.56003181	    -11.56999107	      1.13551110	    115.86136024	    115.86136024	      4.06384460	      0.00000000	      0.00000000	    -16.52576511	     -2.77387737	      8.61928668	     46.33857933	    -11.34960317	      0.77159910	    119.06483404	     58.71667779	      0.00000000	      0.00000000	    -45.60723666	    -15.84129936	    -15.86077517	     61.97891469	     73.02411251	      0.00000000	      0.00000000
